<mxfile host="Electron" modified="2023-07-11T04:30:55.975Z" agent="Mozilla/5.0 (Windows NT 10.0; Win64; x64) AppleWebKit/537.36 (KHTML, like Gecko) draw.io/21.5.0 Chrome/112.0.5615.204 Electron/24.5.1 Safari/537.36" etag="LFAL2F-Rgl39y2CeDv25" version="21.5.0" type="device">
  <diagram name="Page-1" id="v7wO8V_l08W42mXK9qB6">
    <mxGraphModel dx="1098" dy="828" grid="1" gridSize="10" guides="1" tooltips="1" connect="1" arrows="1" fold="1" page="1" pageScale="1" pageWidth="850" pageHeight="1100" math="0" shadow="0">
      <root>
        <mxCell id="0" />
        <mxCell id="1" parent="0" />
        <mxCell id="FjqjWEWlWXudp6pBFliA-2" style="edgeStyle=orthogonalEdgeStyle;rounded=0;orthogonalLoop=1;jettySize=auto;html=1;" edge="1" parent="1" source="FjqjWEWlWXudp6pBFliA-1" target="FjqjWEWlWXudp6pBFliA-3">
          <mxGeometry relative="1" as="geometry">
            <mxPoint x="240" y="160" as="targetPoint" />
          </mxGeometry>
        </mxCell>
        <mxCell id="FjqjWEWlWXudp6pBFliA-1" value="Pelanggan 1" style="shape=umlActor;verticalLabelPosition=bottom;verticalAlign=top;html=1;outlineConnect=0;" vertex="1" parent="1">
          <mxGeometry x="230" y="40" width="20" height="50" as="geometry" />
        </mxCell>
        <mxCell id="FjqjWEWlWXudp6pBFliA-4" style="edgeStyle=orthogonalEdgeStyle;rounded=0;orthogonalLoop=1;jettySize=auto;html=1;" edge="1" parent="1" source="FjqjWEWlWXudp6pBFliA-3" target="FjqjWEWlWXudp6pBFliA-5">
          <mxGeometry relative="1" as="geometry">
            <mxPoint x="240" y="270" as="targetPoint" />
          </mxGeometry>
        </mxCell>
        <mxCell id="FjqjWEWlWXudp6pBFliA-3" value="puast industri" style="rounded=0;whiteSpace=wrap;html=1;" vertex="1" parent="1">
          <mxGeometry x="180" y="170" width="120" height="60" as="geometry" />
        </mxCell>
        <mxCell id="FjqjWEWlWXudp6pBFliA-6" style="edgeStyle=orthogonalEdgeStyle;rounded=0;orthogonalLoop=1;jettySize=auto;html=1;" edge="1" parent="1" source="FjqjWEWlWXudp6pBFliA-5" target="FjqjWEWlWXudp6pBFliA-7">
          <mxGeometry relative="1" as="geometry">
            <mxPoint x="240" y="430" as="targetPoint" />
          </mxGeometry>
        </mxCell>
        <mxCell id="FjqjWEWlWXudp6pBFliA-5" value="Produk A" style="shape=document;whiteSpace=wrap;html=1;boundedLbl=1;" vertex="1" parent="1">
          <mxGeometry x="180" y="280" width="120" height="80" as="geometry" />
        </mxCell>
        <mxCell id="FjqjWEWlWXudp6pBFliA-8" style="edgeStyle=orthogonalEdgeStyle;rounded=0;orthogonalLoop=1;jettySize=auto;html=1;" edge="1" parent="1" source="FjqjWEWlWXudp6pBFliA-7" target="FjqjWEWlWXudp6pBFliA-9">
          <mxGeometry relative="1" as="geometry">
            <mxPoint x="240" y="550" as="targetPoint" />
          </mxGeometry>
        </mxCell>
        <mxCell id="FjqjWEWlWXudp6pBFliA-7" value="Produk B" style="shape=document;whiteSpace=wrap;html=1;boundedLbl=1;" vertex="1" parent="1">
          <mxGeometry x="180" y="390" width="120" height="80" as="geometry" />
        </mxCell>
        <mxCell id="FjqjWEWlWXudp6pBFliA-13" style="edgeStyle=orthogonalEdgeStyle;rounded=0;orthogonalLoop=1;jettySize=auto;html=1;" edge="1" parent="1" source="FjqjWEWlWXudp6pBFliA-9" target="FjqjWEWlWXudp6pBFliA-14">
          <mxGeometry relative="1" as="geometry">
            <mxPoint x="240" y="650" as="targetPoint" />
          </mxGeometry>
        </mxCell>
        <mxCell id="FjqjWEWlWXudp6pBFliA-9" value="Produk C" style="shape=document;whiteSpace=wrap;html=1;boundedLbl=1;" vertex="1" parent="1">
          <mxGeometry x="180" y="510" width="120" height="80" as="geometry" />
        </mxCell>
        <mxCell id="FjqjWEWlWXudp6pBFliA-15" style="edgeStyle=orthogonalEdgeStyle;rounded=0;orthogonalLoop=1;jettySize=auto;html=1;" edge="1" parent="1" source="FjqjWEWlWXudp6pBFliA-14" target="FjqjWEWlWXudp6pBFliA-16">
          <mxGeometry relative="1" as="geometry">
            <mxPoint x="240" y="740" as="targetPoint" />
          </mxGeometry>
        </mxCell>
        <mxCell id="FjqjWEWlWXudp6pBFliA-14" value="Pusat Industri" style="rounded=0;whiteSpace=wrap;html=1;" vertex="1" parent="1">
          <mxGeometry x="180" y="620" width="120" height="60" as="geometry" />
        </mxCell>
        <mxCell id="FjqjWEWlWXudp6pBFliA-16" value="Pelanggan 2" style="shape=umlActor;verticalLabelPosition=bottom;verticalAlign=top;html=1;outlineConnect=0;" vertex="1" parent="1">
          <mxGeometry x="225" y="730" width="30" height="60" as="geometry" />
        </mxCell>
      </root>
    </mxGraphModel>
  </diagram>
</mxfile>
